<?xml version="1.0" standalone="no"?>
<!DOCTYPE svg PUBLIC "-//W3C//DTD SVG 20010904//EN"
 "http://www.w3.org/TR/2001/REC-SVG-20010904/DTD/svg10.dtd">
<svg version="1.0" xmlns="http://www.w3.org/2000/svg"
 width="1024.000000pt" height="1024.000000pt" viewBox="0 0 1024.000000 1024.000000"
 preserveAspectRatio="xMidYMid meet">
<metadata>
Created by potrace 1.11, written by Peter Selinger 2001-2013
</metadata>
<g transform="translate(0.000000,1024.000000) scale(0.100000,-0.100000)"
fill="#000000" stroke="none">
<path d="M3585 10212 c-27 -16 -70 -39 -95 -52 -66 -37 -224 -144 -304 -208
-343 -273 -627 -700 -751 -1129 -34 -117 -72 -307 -84 -418 -9 -89 -8 -437 2
-485 3 -14 8 -50 12 -80 7 -64 51 -267 70 -325 8 -22 23 -71 33 -110 11 -38
31 -108 45 -155 14 -47 64 -218 111 -380 47 -162 90 -308 95 -325 6 -16 26
-84 45 -150 122 -424 157 -545 170 -585 8 -25 43 -142 76 -260 34 -118 65
-226 70 -240 23 -65 170 -580 170 -596 0 -11 -15 -57 -35 -104 -19 -47 -114
-285 -211 -530 -97 -245 -185 -463 -196 -484 -52 -101 -181 -199 -298 -225
-46 -10 -156 -8 -205 4 -151 38 -291 186 -324 345 -9 40 -12 546 -14 1900 -2
1751 -3 1848 -21 1905 -48 160 -131 284 -261 390 -203 165 -499 201 -742 90
-225 -103 -379 -301 -423 -546 -10 -51 -16 -979 -10 -1496 0 -31 0 -31 46 -28
240 21 438 134 575 328 156 222 182 529 66 779 -39 82 -139 211 -203 260 -54
42 -55 44 -49 82 11 73 63 152 128 193 166 105 375 28 437 -162 11 -32 14
-387 15 -1880 1 -1370 5 -1854 13 -1895 74 -343 304 -607 622 -713 103 -34
186 -46 313 -43 122 2 111 12 108 -99 -10 -307 -245 -605 -544 -691 l-67 -19
0 -661 0 -661 52 -2 c222 -8 458 -149 586 -350 74 -116 121 -257 122 -358 l0
-43 720 0 720 0 -4 33 c-24 183 -160 340 -336 387 -30 8 -143 13 -338 14 -204
1 -295 5 -300 12 -6 10 -93 108 -163 185 -55 58 -181 197 -218 239 -103 115
-143 266 -111 417 21 95 97 209 175 263 l42 29 54 -34 c30 -19 65 -40 79 -47
14 -8 223 -133 465 -278 388 -233 490 -288 570 -307 11 -2 54 -5 95 -5 132 0
251 53 348 156 50 52 102 143 116 201 5 17 10 39 13 50 10 41 4 156 -12 216
-20 79 -47 126 -136 237 -191 237 -346 571 -395 852 -29 161 -37 242 -37 365
0 185 26 388 69 545 131 468 418 863 824 1133 141 94 394 209 530 242 113 27
227 48 325 61 33 4 506 8 1050 9 545 1 1006 5 1025 9 277 53 496 227 594 472
57 142 57 142 57 974 0 421 0 775 -1 787 l0 23 -42 -22 c-24 -12 -62 -34 -85
-50 -23 -15 -46 -28 -52 -28 -6 0 -11 -4 -11 -10 0 -5 -5 -10 -10 -10 -33 0
-187 -161 -218 -228 l-26 -57 -1 -330 0 -330 -784 0 -784 0 -3 55 c-3 61 -12
149 -20 195 -10 57 -47 190 -55 200 -5 5 -9 16 -9 25 0 22 -82 181 -134 258
-25 37 -73 97 -107 135 -64 70 -200 187 -218 187 -6 0 -11 3 -11 8 0 24 -172
101 -500 222 -800 296 -774 285 -850 353 -55 49 -107 139 -129 222 -11 40 -15
185 -6 185 3 0 121 -43 263 -96 326 -122 303 -115 398 -119 133 -7 231 32 329
130 58 58 110 139 100 155 -2 4 -53 24 -112 45 -59 20 -121 43 -138 50 -16 8
-77 29 -134 49 -136 47 -184 72 -237 123 -184 179 -129 491 106 601 46 22 70
26 145 27 89 0 93 -1 343 -92 139 -51 257 -93 262 -93 19 0 30 164 16 240 -19
102 -130 251 -221 297 -44 22 -192 76 -657 239 -110 38 -218 76 -350 123 -281
100 -551 195 -871 307 -53 19 -98 34 -100 33 -1 0 -24 -12 -52 -27z"/>
<path d="M7167 9519 c-127 -145 -154 -358 -65 -517 11 -20 105 -150 209 -288
104 -137 189 -254 189 -260 -1 -5 -71 -63 -157 -129 -86 -66 -258 -199 -383
-295 -124 -96 -316 -245 -427 -330 -111 -85 -202 -158 -202 -162 -1 -3 29 -30
67 -59 62 -48 152 -135 228 -220 17 -19 60 -77 96 -129 112 -162 190 -333 233
-510 11 -41 20 -77 22 -79 2 -3 188 133 203 149 4 5 152 119 635 492 187 145
250 201 303 273 61 83 121 211 136 291 22 117 24 239 6 319 -7 28 -13 59 -16
70 -9 46 -60 155 -104 220 -36 54 -297 403 -578 773 -9 12 -88 117 -175 232
-87 116 -162 210 -167 210 -4 0 -28 -23 -53 -51z"/>
<path d="M6218 3835 c-2 -2 -34 -5 -73 -9 -38 -3 -79 -7 -90 -9 -11 -3 -41 -7
-66 -11 -73 -11 -128 -21 -263 -51 -290 -64 -744 -226 -1121 -400 -77 -36
-377 -184 -383 -190 -1 -1 20 -38 48 -81 27 -44 53 -86 57 -94 4 -8 25 -44 48
-80 23 -36 93 -148 155 -250 62 -102 114 -186 115 -188 1 -1 43 -4 94 -7 50
-2 95 -6 99 -9 5 -3 24 -8 42 -11 90 -16 247 -114 321 -200 19 -22 36 -42 40
-45 3 -3 15 -22 28 -43 128 -210 139 -442 32 -669 l-23 -47 44 -70 c24 -39
106 -173 183 -298 163 -266 281 -457 304 -495 9 -15 92 -151 186 -303 l170
-275 798 0 799 0 -5 42 c-15 126 -97 254 -205 322 -22 14 -69 35 -104 47 -59
20 -83 22 -353 22 l-290 1 -45 71 c-25 39 -50 80 -57 91 -80 131 -632 1028
-650 1054 l-23 34 134 133 c272 269 469 503 631 748 310 471 372 855 172 1072
-82 89 -207 152 -357 179 -14 2 -41 7 -60 10 -33 6 -327 14 -332 9z"/>
</g>
</svg>
